<svg width="24" height="21" viewBox="0 0 24 21" fill="none" xmlns="http://www.w3.org/2000/svg">
    <path d="M20.42 3.57999C19.9183 3.07656 19.3222 2.67713 18.6658 2.40458C18.0094 2.13203 17.3057 1.99173 16.595 1.99173C15.8842 1.99173 15.1805 2.13203 14.5241 2.40458C13.8678 2.67713 13.2716 3.07656 12.77 3.57999L12 4.35999L11.23 3.57999C10.7283 3.07656 10.1322 2.67713 9.47578 2.40458C8.81941 2.13203 8.11568 1.99173 7.40496 1.99173C6.69425 1.99173 5.99052 2.13203 5.33414 2.40458C4.67776 2.67713 4.08164 3.07656 3.57996 3.57999C1.45996 5.69999 1.32996 9.27999 3.99996 12L12 20L20 12C22.67 9.27999 22.54 5.69999 20.42 3.57999Z" stroke="black" stroke-width="2" stroke-linecap="round" stroke-linejoin="round"/>
</svg>
