<svg width="24" height="24" viewBox="0 0 24 24" fill="none" xmlns="http://www.w3.org/2000/svg">
    <path d="M18.7307 6.32294C18.3297 5.90361 17.8531 5.5709 17.3284 5.34388C16.8038 5.11686 16.2412 5 15.6731 5C15.105 5 14.5424 5.11686 14.0177 5.34388C13.4931 5.5709 13.0165 5.90361 12.6155 6.32294L12 6.97264L11.3845 6.32294C10.9835 5.90361 10.5069 5.5709 9.98225 5.34388C9.45756 5.11686 8.89503 5 8.3269 5C7.75878 5 7.19624 5.11686 6.67155 5.34388C6.14686 5.5709 5.67034 5.90361 5.26932 6.32294C3.57466 8.0888 3.47074 11.0708 5.60505 13.3364L12 20L18.3949 13.3364C20.5293 11.0708 20.4253 8.0888 18.7307 6.32294Z" fill="#EE4E62"/>
</svg>