<svg width="16" height="16" viewBox="0 0 16 16" fill="none" xmlns="http://www.w3.org/2000/svg">
    <path d="M8.5 2.75C8.5 2.33579 8.16421 2 7.75 2C7.33579 2 7 2.33579 7 2.75C7 3.16421 7.33579 3.5 7.75 3.5C8.16421 3.5 8.5 3.16421 8.5 2.75Z" stroke="#0B0434" stroke-width="1.5" stroke-linecap="round" stroke-linejoin="round"/>
    <path d="M8.5 8C8.5 7.58579 8.16421 7.25 7.75 7.25C7.33579 7.25 7 7.58579 7 8C7 8.41421 7.33579 8.75 7.75 8.75C8.16421 8.75 8.5 8.41421 8.5 8Z" stroke="#0B0434" stroke-width="1.5" stroke-linecap="round" stroke-linejoin="round"/>
    <path d="M8.5 13.25C8.5 12.8358 8.16421 12.5 7.75 12.5C7.33579 12.5 7 12.8358 7 13.25C7 13.6642 7.33579 14 7.75 14C8.16421 14 8.5 13.6642 8.5 13.25Z" stroke="#0B0434" stroke-width="1.5" stroke-linecap="round" stroke-linejoin="round"/>
</svg>