<svg width="208" height="129" viewBox="0 0 208 129" fill="none" xmlns="http://www.w3.org/2000/svg">
    <g clip-path="url(#clip0_965_1399)">
        <path d="M154.23 0H53.7698C24.2004 0 0 24.1991 0 53.7669C0 83.3435 24.2004 107.534 53.7698 107.534H103.996V128.991C103.996 128.991 160.631 115.697 184.611 98.0569H184.602C198.708 88.342 208 72.0859 208 53.7669C208 24.1903 183.8 0 154.23 0Z" fill="#282A47"/>
        <path d="M56.406 34.3989H56.3972C50.2135 34.3989 45.2007 39.4115 45.2007 45.5949V61.278C45.2007 67.4613 50.2135 72.4739 56.3972 72.4739H56.406C62.5897 72.4739 67.6026 67.4613 67.6026 61.278V45.5949C67.6026 39.4115 62.5897 34.3989 56.406 34.3989Z" fill="#2EC3FF"/>
        <path d="M151.612 34.9014H151.603C145.42 34.9014 140.407 39.914 140.407 46.0973V61.7804C140.407 67.9637 145.42 72.9763 151.603 72.9763H151.612C157.796 72.9763 162.809 67.9637 162.809 61.7804V46.0973C162.809 39.914 157.796 34.9014 151.612 34.9014Z" fill="#2EC3FF"/>
    </g>
    <defs>
        <clipPath id="clip0_965_1399">
            <rect width="208" height="129" fill="white"/>
        </clipPath>
    </defs>
</svg>