<svg width="22" height="23" viewBox="0 0 22 23" fill="none" xmlns="http://www.w3.org/2000/svg">
    <path d="M16.0015 12.011L12.0156 21.0172C11.22 21.0185 10.4564 20.7036 9.89294 20.1419C9.32945 19.5801 9.01219 18.8176 9.01094 18.0219L9.00468 14.0219L3.34468 14.0308C3.05478 14.0345 2.76753 13.9752 2.50284 13.8569C2.23814 13.7386 2.00234 13.5641 1.81175 13.3457C1.62116 13.1272 1.48036 12.8699 1.39909 12.5916C1.31782 12.3133 1.29802 12.0206 1.34108 11.7339L2.70698 2.73177C2.77856 2.25475 3.02012 1.81967 3.38716 1.50669C3.7542 1.19372 4.22198 1.02394 4.70432 1.02863L15.9843 1.01097M16.0015 12.011L15.9843 1.01097M16.0015 12.011L19.0015 12.0063C19.532 12.0054 20.0403 11.7939 20.4148 11.4183C20.7893 11.0426 20.9992 10.5336 20.9984 10.0031L20.9874 3.00313C20.9866 2.4727 20.7751 1.96433 20.3994 1.58984C20.0238 1.21536 19.5147 1.00544 18.9843 1.00627L15.9843 1.01097" stroke="black" stroke-width="2" stroke-linecap="round" stroke-linejoin="round"/>
</svg>
