<svg width="22" height="23" viewBox="0 0 22 23" fill="none" xmlns="http://www.w3.org/2000/svg">
    <path d="M6 10.0188L10 1.01877C10.7956 1.01877 11.5587 1.33484 12.1213 1.89745C12.6839 2.46006 13 3.22312 13 4.01877V8.01877H18.66C18.9499 8.01549 19.2371 8.07527 19.5016 8.19399C19.7661 8.3127 20.0016 8.4875 20.1919 8.70628C20.3821 8.92506 20.5225 9.18259 20.6033 9.46102C20.6842 9.73945 20.7035 10.0321 20.66 10.3188L19.28 19.3188C19.2077 19.7957 18.9654 20.2304 18.5979 20.5428C18.2304 20.8552 17.7623 21.0242 17.28 21.0188H6M6 10.0188V21.0188M6 10.0188H3C2.46957 10.0188 1.96086 10.2295 1.58579 10.6046C1.21071 10.9796 1 11.4883 1 12.0188V19.0188C1 19.5492 1.21071 20.0579 1.58579 20.433C1.96086 20.8081 2.46957 21.0188 3 21.0188H6" stroke="black" stroke-width="2" stroke-linecap="round" stroke-linejoin="round"/>
</svg>
